<mxfile host="app.diagrams.net" modified="2023-09-08T14:41:00.692Z" agent="Mozilla/5.0 (X11; Ubuntu; Linux x86_64; rv:109.0) Gecko/20100101 Firefox/117.0" etag="XJ_7n9pAMdIdldF6Tn3o" version="21.7.2" type="device">
  <diagram name="Page-1" id="99AzHc4qrtSTLvsQaRG9">
    <mxGraphModel dx="3359" dy="994" grid="1" gridSize="10" guides="1" tooltips="1" connect="1" arrows="1" fold="1" page="1" pageScale="1" pageWidth="827" pageHeight="1169" math="0" shadow="0">
      <root>
        <mxCell id="0" />
        <mxCell id="1" parent="0" />
        <mxCell id="APMK42wIIL-UIDDwpVV--79" value="" style="group" vertex="1" connectable="0" parent="1">
          <mxGeometry x="-1020" y="900" width="230" height="130" as="geometry" />
        </mxCell>
        <mxCell id="APMK42wIIL-UIDDwpVV--71" value="&lt;b&gt;SENSOR&lt;/b&gt;" style="rounded=0;whiteSpace=wrap;html=1;fontFamily=Helvetica;fontSize=11;fillColor=#f5f5f5;strokeColor=#666666;fontColor=#333333;" vertex="1" parent="APMK42wIIL-UIDDwpVV--79">
          <mxGeometry width="230" height="130" as="geometry" />
        </mxCell>
        <mxCell id="APMK42wIIL-UIDDwpVV--73" value="PUB" style="rounded=0;whiteSpace=wrap;html=1;fontFamily=Helvetica;fontSize=11;fillColor=#dae8fc;strokeColor=#6c8ebf;fontStyle=1" vertex="1" parent="APMK42wIIL-UIDDwpVV--79">
          <mxGeometry x="110" y="10" width="110" height="30" as="geometry" />
        </mxCell>
        <mxCell id="APMK42wIIL-UIDDwpVV--54" value="" style="group;fontStyle=1" vertex="1" connectable="0" parent="1">
          <mxGeometry x="-660" y="70" width="320" height="300" as="geometry" />
        </mxCell>
        <mxCell id="APMK42wIIL-UIDDwpVV--55" value="ROBOT" style="rounded=0;whiteSpace=wrap;html=1;fontFamily=Helvetica;fontSize=11;fillColor=#f5f5f5;strokeColor=#666666;fontColor=#333333;" vertex="1" parent="APMK42wIIL-UIDDwpVV--54">
          <mxGeometry width="320" height="300" as="geometry" />
        </mxCell>
        <mxCell id="APMK42wIIL-UIDDwpVV--56" value="SUB" style="rounded=0;whiteSpace=wrap;html=1;fontFamily=Helvetica;fontSize=11;fillColor=#dae8fc;strokeColor=#6c8ebf;fontStyle=1" vertex="1" parent="APMK42wIIL-UIDDwpVV--54">
          <mxGeometry x="200" y="260" width="110" height="30" as="geometry" />
        </mxCell>
        <mxCell id="APMK42wIIL-UIDDwpVV--44" value="" style="group;fontStyle=1" vertex="1" connectable="0" parent="1">
          <mxGeometry x="-540" y="460" width="320" height="300" as="geometry" />
        </mxCell>
        <mxCell id="APMK42wIIL-UIDDwpVV--36" value="" style="rounded=0;whiteSpace=wrap;html=1;fontFamily=Helvetica;fontSize=11;fillColor=#f5f5f5;strokeColor=#666666;fontColor=#333333;" vertex="1" parent="APMK42wIIL-UIDDwpVV--44">
          <mxGeometry width="320" height="300" as="geometry" />
        </mxCell>
        <mxCell id="APMK42wIIL-UIDDwpVV--83" value="&lt;div&gt;Sends Twist msg command to diff_driver.&lt;/div&gt;&lt;div&gt;Default is 0&lt;/div&gt;&lt;div&gt;Changes value if USR_CMD_VEL is used&lt;br&gt;&lt;/div&gt;" style="rounded=0;whiteSpace=wrap;html=1;fontFamily=Helvetica;fontSize=17;fontColor=default;align=left;verticalAlign=top;" vertex="1" parent="APMK42wIIL-UIDDwpVV--44">
          <mxGeometry x="10" y="50" width="300" height="200" as="geometry" />
        </mxCell>
        <mxCell id="APMK42wIIL-UIDDwpVV--84" value="PUB" style="rounded=0;whiteSpace=wrap;html=1;fontFamily=Helvetica;fontSize=11;fillColor=#dae8fc;strokeColor=#6c8ebf;fontStyle=1" vertex="1" parent="APMK42wIIL-UIDDwpVV--44">
          <mxGeometry x="207" y="10" width="100" height="30" as="geometry" />
        </mxCell>
        <mxCell id="APMK42wIIL-UIDDwpVV--59" value="SERVER" style="rounded=0;whiteSpace=wrap;html=1;fontFamily=Helvetica;fontSize=11;fillColor=#fff2cc;strokeColor=#d6b656;fontStyle=1" vertex="1" parent="APMK42wIIL-UIDDwpVV--44">
          <mxGeometry x="150" y="260" width="160" height="30" as="geometry" />
        </mxCell>
        <mxCell id="APMK42wIIL-UIDDwpVV--39" value="&lt;span&gt;PUBLISHER&lt;/span&gt; / SUBSCRIBER" style="rounded=0;whiteSpace=wrap;html=1;fontFamily=Helvetica;fontSize=11;fillColor=#dae8fc;strokeColor=#6c8ebf;fontStyle=1" vertex="1" parent="1">
          <mxGeometry x="-1040" y="420" width="160" height="30" as="geometry" />
        </mxCell>
        <mxCell id="APMK42wIIL-UIDDwpVV--40" value="&lt;span&gt;SERVICE&lt;/span&gt; CLIENT / SERVER" style="rounded=0;whiteSpace=wrap;html=1;fontFamily=Helvetica;fontSize=11;fillColor=#fff2cc;strokeColor=#d6b656;fontStyle=1" vertex="1" parent="1">
          <mxGeometry x="-1040" y="460" width="160" height="30" as="geometry" />
        </mxCell>
        <mxCell id="APMK42wIIL-UIDDwpVV--43" value="NODE" style="rounded=0;whiteSpace=wrap;html=1;fontFamily=Helvetica;fontSize=11;fillColor=#f5f5f5;strokeColor=#666666;fontStyle=1;fontColor=#333333;" vertex="1" parent="1">
          <mxGeometry x="-1040" y="500" width="160" height="30" as="geometry" />
        </mxCell>
        <mxCell id="APMK42wIIL-UIDDwpVV--48" value="TOPIC" style="rounded=0;whiteSpace=wrap;html=1;fontFamily=Helvetica;fontSize=11;fillColor=#d5e8d4;strokeColor=#82b366;fontStyle=1" vertex="1" parent="1">
          <mxGeometry x="-1040" y="380" width="160" height="30" as="geometry" />
        </mxCell>
        <mxCell id="APMK42wIIL-UIDDwpVV--58" style="edgeStyle=none;shape=connector;rounded=0;orthogonalLoop=1;jettySize=auto;html=1;exitX=0.5;exitY=0;exitDx=0;exitDy=0;entryX=0.5;entryY=1;entryDx=0;entryDy=0;labelBackgroundColor=default;strokeColor=default;fontFamily=Helvetica;fontSize=11;fontColor=default;endArrow=classic;" edge="1" parent="1" source="APMK42wIIL-UIDDwpVV--52" target="APMK42wIIL-UIDDwpVV--56">
          <mxGeometry relative="1" as="geometry" />
        </mxCell>
        <mxCell id="APMK42wIIL-UIDDwpVV--52" value="CMD_VEL" style="rounded=0;whiteSpace=wrap;html=1;fontFamily=Helvetica;fontSize=11;fillColor=#60a917;strokeColor=#2D7600;fontStyle=1;fontColor=#ffffff;" vertex="1" parent="1">
          <mxGeometry x="-390" y="400" width="120" height="30" as="geometry" />
        </mxCell>
        <mxCell id="APMK42wIIL-UIDDwpVV--53" style="edgeStyle=none;shape=connector;rounded=0;orthogonalLoop=1;jettySize=auto;html=1;exitX=0.5;exitY=0;exitDx=0;exitDy=0;entryX=0.5;entryY=1;entryDx=0;entryDy=0;labelBackgroundColor=default;strokeColor=default;fontFamily=Helvetica;fontSize=11;fontColor=default;endArrow=classic;" edge="1" parent="1" source="APMK42wIIL-UIDDwpVV--84" target="APMK42wIIL-UIDDwpVV--52">
          <mxGeometry relative="1" as="geometry" />
        </mxCell>
        <mxCell id="APMK42wIIL-UIDDwpVV--60" value="" style="group" vertex="1" connectable="0" parent="1">
          <mxGeometry x="-510" y="930" width="320" height="300" as="geometry" />
        </mxCell>
        <mxCell id="APMK42wIIL-UIDDwpVV--61" value="" style="rounded=0;whiteSpace=wrap;html=1;fontFamily=Helvetica;fontSize=11;fillColor=#f5f5f5;strokeColor=#666666;fontColor=#333333;" vertex="1" parent="APMK42wIIL-UIDDwpVV--60">
          <mxGeometry width="320" height="300" as="geometry" />
        </mxCell>
        <mxCell id="APMK42wIIL-UIDDwpVV--63" value="CLIENT" style="rounded=0;whiteSpace=wrap;html=1;fontFamily=Helvetica;fontSize=11;fillColor=#fff2cc;strokeColor=#d6b656;fontStyle=1" vertex="1" parent="APMK42wIIL-UIDDwpVV--60">
          <mxGeometry x="150" y="10" width="160" height="30" as="geometry" />
        </mxCell>
        <mxCell id="APMK42wIIL-UIDDwpVV--77" value="SUB" style="rounded=0;whiteSpace=wrap;html=1;fontFamily=Helvetica;fontSize=11;fillColor=#dae8fc;strokeColor=#6c8ebf;fontStyle=1" vertex="1" parent="APMK42wIIL-UIDDwpVV--60">
          <mxGeometry x="10" y="10" width="110" height="30" as="geometry" />
        </mxCell>
        <mxCell id="APMK42wIIL-UIDDwpVV--81" value="Sends service req on condition(position)" style="rounded=0;whiteSpace=wrap;html=1;fontFamily=Helvetica;fontSize=17;fontColor=default;align=left;verticalAlign=top;" vertex="1" parent="APMK42wIIL-UIDDwpVV--60">
          <mxGeometry x="10" y="90" width="300" height="200" as="geometry" />
        </mxCell>
        <mxCell id="APMK42wIIL-UIDDwpVV--64" value="SERVICE REQ / REP" style="rounded=0;whiteSpace=wrap;html=1;fontFamily=Helvetica;fontSize=11;fillColor=#e1d5e7;strokeColor=#9673a6;fontStyle=1" vertex="1" parent="1">
          <mxGeometry x="-1040" y="300" width="160" height="30" as="geometry" />
        </mxCell>
        <mxCell id="APMK42wIIL-UIDDwpVV--67" style="edgeStyle=none;shape=connector;rounded=0;orthogonalLoop=1;jettySize=auto;html=1;exitX=0.75;exitY=0;exitDx=0;exitDy=0;entryX=0.75;entryY=1;entryDx=0;entryDy=0;labelBackgroundColor=default;strokeColor=default;fontFamily=Helvetica;fontSize=11;fontColor=default;endArrow=classic;" edge="1" parent="1" source="APMK42wIIL-UIDDwpVV--65" target="APMK42wIIL-UIDDwpVV--59">
          <mxGeometry relative="1" as="geometry" />
        </mxCell>
        <mxCell id="APMK42wIIL-UIDDwpVV--69" style="edgeStyle=none;shape=connector;rounded=0;orthogonalLoop=1;jettySize=auto;html=1;exitX=0.25;exitY=1;exitDx=0;exitDy=0;entryX=0.25;entryY=0;entryDx=0;entryDy=0;labelBackgroundColor=default;strokeColor=default;fontFamily=Helvetica;fontSize=11;fontColor=default;endArrow=classic;" edge="1" parent="1" source="APMK42wIIL-UIDDwpVV--65" target="APMK42wIIL-UIDDwpVV--63">
          <mxGeometry relative="1" as="geometry" />
        </mxCell>
        <mxCell id="APMK42wIIL-UIDDwpVV--65" value="&lt;font style=&quot;font-size: 16px;&quot;&gt;srv_cmd_vel&lt;/font&gt;" style="rounded=0;whiteSpace=wrap;html=1;fontFamily=Helvetica;fontSize=11;fillColor=#e1d5e7;strokeColor=#9673a6;fontStyle=1" vertex="1" parent="1">
          <mxGeometry x="-340" y="800" width="150" height="80" as="geometry" />
        </mxCell>
        <mxCell id="APMK42wIIL-UIDDwpVV--66" style="edgeStyle=none;shape=connector;rounded=0;orthogonalLoop=1;jettySize=auto;html=1;exitX=0.75;exitY=0;exitDx=0;exitDy=0;entryX=0.75;entryY=1;entryDx=0;entryDy=0;labelBackgroundColor=default;strokeColor=default;fontFamily=Helvetica;fontSize=11;fontColor=default;endArrow=classic;" edge="1" parent="1" source="APMK42wIIL-UIDDwpVV--63" target="APMK42wIIL-UIDDwpVV--65">
          <mxGeometry relative="1" as="geometry" />
        </mxCell>
        <mxCell id="APMK42wIIL-UIDDwpVV--68" style="edgeStyle=none;shape=connector;rounded=0;orthogonalLoop=1;jettySize=auto;html=1;exitX=0.25;exitY=1;exitDx=0;exitDy=0;entryX=0.25;entryY=0;entryDx=0;entryDy=0;labelBackgroundColor=default;strokeColor=default;fontFamily=Helvetica;fontSize=11;fontColor=default;endArrow=classic;" edge="1" parent="1" source="APMK42wIIL-UIDDwpVV--59" target="APMK42wIIL-UIDDwpVV--65">
          <mxGeometry relative="1" as="geometry" />
        </mxCell>
        <mxCell id="APMK42wIIL-UIDDwpVV--78" style="edgeStyle=none;shape=connector;rounded=0;orthogonalLoop=1;jettySize=auto;html=1;exitX=1;exitY=0.5;exitDx=0;exitDy=0;entryX=0;entryY=0.5;entryDx=0;entryDy=0;labelBackgroundColor=default;strokeColor=default;fontFamily=Helvetica;fontSize=11;fontColor=default;endArrow=classic;" edge="1" parent="1" source="APMK42wIIL-UIDDwpVV--74" target="APMK42wIIL-UIDDwpVV--77">
          <mxGeometry relative="1" as="geometry" />
        </mxCell>
        <mxCell id="APMK42wIIL-UIDDwpVV--74" value="IMU" style="rounded=0;whiteSpace=wrap;html=1;fontFamily=Helvetica;fontSize=11;fillColor=#60a917;strokeColor=#2D7600;fontStyle=1;fontColor=#ffffff;" vertex="1" parent="1">
          <mxGeometry x="-670" y="900" width="120" height="30" as="geometry" />
        </mxCell>
        <mxCell id="APMK42wIIL-UIDDwpVV--75" style="edgeStyle=none;shape=connector;rounded=0;orthogonalLoop=1;jettySize=auto;html=1;exitX=1;exitY=0.5;exitDx=0;exitDy=0;entryX=0;entryY=0.5;entryDx=0;entryDy=0;labelBackgroundColor=default;strokeColor=default;fontFamily=Helvetica;fontSize=11;fontColor=default;endArrow=classic;" edge="1" parent="1" source="APMK42wIIL-UIDDwpVV--73" target="APMK42wIIL-UIDDwpVV--74">
          <mxGeometry relative="1" as="geometry" />
        </mxCell>
        <mxCell id="APMK42wIIL-UIDDwpVV--98" value="BRIDGE TOPIC" style="rounded=0;whiteSpace=wrap;html=1;fontFamily=Helvetica;fontSize=11;fillColor=#60a917;strokeColor=#2D7600;fontStyle=1;fontColor=#ffffff;" vertex="1" parent="1">
          <mxGeometry x="-1040" y="340" width="160" height="30" as="geometry" />
        </mxCell>
      </root>
    </mxGraphModel>
  </diagram>
</mxfile>
